<svg width="19" height="20" viewBox="0 0 19 20" fill="none" xmlns="http://www.w3.org/2000/svg">
<path d="M16.5 2H15.5V1C15.5 0.45 15.05 0 14.5 0C13.95 0 13.5 0.45 13.5 1V2H5.5V1C5.5 0.45 5.05 0 4.5 0C3.95 0 3.5 0.45 3.5 1V2H2.5C1.39 2 0.51 2.9 0.51 4L0.5 18C0.5 19.1 1.39 20 2.5 20H16.5C17.6 20 18.5 19.1 18.5 18V4C18.5 2.9 17.6 2 16.5 2ZM16.5 17C16.5 17.55 16.05 18 15.5 18H3.5C2.95 18 2.5 17.55 2.5 17V7H16.5V17ZM4.5 9H6.5V11H4.5V9ZM8.5 9H10.5V11H8.5V9ZM12.5 9H14.5V11H12.5V9Z" fill="#3D3D3D"/>
</svg>
