<?xml version="1.0" encoding="UTF-8"?>
<!DOCTYPE svg PUBLIC "-//W3C//DTD SVG 1.1//EN" "http://www.w3.org/Graphics/SVG/1.1/DTD/svg11.dtd">
<svg xmlns="http://www.w3.org/2000/svg" version="1.1" width="1843px" height="981px" style="shape-rendering:geometricPrecision; text-rendering:geometricPrecision; image-rendering:optimizeQuality; fill-rule:evenodd; clip-rule:evenodd" xmlns:xlink="http://www.w3.org/1999/xlink">
<g><path style="opacity:1" fill="#fefefe" d="M -0.5,-0.5 C 613.833,-0.5 1228.17,-0.5 1842.5,-0.5C 1842.5,28.5 1842.5,57.5 1842.5,86.5C 1253.5,86.5 664.5,86.5 75.5,86.5C 75.1672,198.668 75.5005,310.668 76.5,422.5C 76.5,523.833 76.5,625.167 76.5,726.5C 76.5,795.167 76.5,863.833 76.5,932.5C 50.8333,932.5 25.1667,932.5 -0.5,932.5C -0.5,621.5 -0.5,310.5 -0.5,-0.5 Z"/></g>
<g><path style="opacity:1" fill="#3e4e5e" d="M 43.5,31.5 C 43.3505,30.448 43.5172,29.448 44,28.5C 49.4062,23.549 54.9062,18.7156 60.5,14C 64.8807,12.7536 67.3807,14.2536 68,18.5C 66.8668,16.7888 65.3668,16.2888 63.5,17C 58.6667,21.1667 53.8333,25.3333 49,29.5C 48.3333,30.5 48.3333,31.5 49,32.5C 55.7943,40.9631 62.961,49.1297 70.5,57C 73.874,56.7976 76.874,55.7976 79.5,54C 77.1503,57.8418 73.817,59.5085 69.5,59C 60.9668,49.6355 52.3001,40.4688 43.5,31.5 Z"/></g>
<g><path style="opacity:1" fill="#428bbf" d="M 67.5,25.5 C 72.4928,25.997 73.4928,28.1637 70.5,32C 65.3823,31.8242 64.3823,29.6576 67.5,25.5 Z"/></g>
<g><path style="opacity:1" fill="#828282" d="M 1758.5,27.5 C 1760.05,27.8212 1760.71,28.8212 1760.5,30.5C 1766.73,31.9568 1769.23,35.9568 1768,42.5C 1769.08,43.6651 1769.92,44.9984 1770.5,46.5C 1763.17,47.8333 1755.83,47.8333 1748.5,46.5C 1750.95,42.9354 1752.12,38.9354 1752,34.5C 1753.57,32.0771 1755.74,30.7438 1758.5,30.5C 1758.5,29.5 1758.5,28.5 1758.5,27.5 Z"/></g>
<g><path style="opacity:1" fill="#848484" d="M 1793.5,27.5 C 1807.91,27.0567 1813.74,33.7234 1811,47.5C 1806.98,54.067 1801.15,56.567 1793.5,55C 1781.6,45.7203 1781.6,36.5536 1793.5,27.5 Z"/></g>
<g><path style="opacity:1" fill="#a8c8e1" d="M 43.5,31.5 C 42.9344,33.0783 41.9344,34.4116 40.5,35.5C 37.8333,31.8333 37.8333,28.1667 40.5,24.5C 41.8692,26.7639 42.8692,29.0972 43.5,31.5 Z"/></g>
<g><path style="opacity:1" fill="#448cc0" d="M 63.5,30.5 C 66.8155,33.9937 70.4821,34.327 74.5,31.5C 75.3081,31.8076 75.9747,32.3076 76.5,33C 74.9179,35.0854 72.9179,36.5854 70.5,37.5C 71.5587,40.6179 72.8921,43.6179 74.5,46.5C 73.3112,47.4287 71.9778,47.762 70.5,47.5C 69.8801,41.0829 68.5467,40.9163 66.5,47C 65.365,47.7494 64.365,47.5827 63.5,46.5C 65.8439,43.4986 66.6772,40.1653 66,36.5C 62.7017,35.4275 61.8684,33.4275 63.5,30.5 Z"/></g>
<g><path style="opacity:1" fill="#f6f6f6" d="M 1796.5,34.5 C 1802.49,34.664 1803.82,37.164 1800.5,42C 1794.4,42.1475 1793.07,39.6475 1796.5,34.5 Z"/></g>
<g><path style="opacity:1" fill="#c1d4e1" d="M 103.5,40.5 C 102.14,45.7503 104.14,48.417 109.5,48.5C 107.354,49.0566 105.354,49.39 103.5,49.5C 99.5461,50.7646 95.5461,50.7646 91.5,49.5C 94.2592,48.951 96.2592,48.2844 97.5,47.5C 96.1667,44.5 96.1667,41.5 97.5,38.5C 98.7791,37.032 100.446,36.3653 102.5,36.5C 102.232,38.099 102.566,39.4324 103.5,40.5 Z"/></g>
<g><path style="opacity:1" fill="#4b91c2" d="M 97.5,38.5 C 96.1667,41.5 96.1667,44.5 97.5,47.5C 96.5,47.5 95.5,47.5 94.5,47.5C 94.8897,44.5342 94.223,41.8676 92.5,39.5C 94.3393,35.3141 96.006,34.9808 97.5,38.5 Z"/></g>
<g><path style="opacity:1" fill="#438bbf" d="M 126.5,36.5 C 128.078,37.0656 129.412,38.0656 130.5,39.5C 127.833,41.8333 127.833,44.1667 130.5,46.5C 129.349,47.731 128.183,47.731 127,46.5C 126.853,43.8896 126.019,41.5563 124.5,39.5C 125.612,38.7348 126.279,37.7348 126.5,36.5 Z"/></g>
<g><path style="opacity:1" fill="#4c90c2" d="M 75.5,38.5 C 78.1194,38.2317 80.6194,38.565 83,39.5C 83.4974,42.146 83.6641,44.8127 83.5,47.5C 82.5,47.5 81.5,47.5 80.5,47.5C 79.9384,38.4304 78.6051,38.4304 76.5,47.5C 75.5159,44.5719 75.1826,41.5719 75.5,38.5 Z"/></g>
<g><path style="opacity:1" fill="#3987bd" d="M 115.5,38.5 C 118.011,38.838 120.345,38.838 122.5,38.5C 123.833,41.5 123.833,44.5 122.5,47.5C 115.47,48.4536 113.137,45.4536 115.5,38.5 Z"/></g>
<g><path style="opacity:1" fill="#408bbf" d="M 86.5,38.5 C 92.1759,38.9475 92.5093,39.7808 87.5,41C 90.8898,42.0062 91.8898,44.0062 90.5,47C 88.3594,47.8837 86.6927,47.3837 85.5,45.5C 90.4319,45.9105 90.5985,44.9105 86,42.5C 85.4209,41.0715 85.5876,39.7382 86.5,38.5 Z"/></g>
<g><path style="opacity:1" fill="#2980b9" d="M 99.5,39.5 C 100.748,40.3339 101.415,41.6672 101.5,43.5C 101.167,44.8333 100.833,46.1667 100.5,47.5C 99.52,44.9135 99.1866,42.2469 99.5,39.5 Z"/></g>
<g><path style="opacity:1" fill="#4b90c2" d="M 103.5,49.5 C 105.354,49.39 107.354,49.0566 109.5,48.5C 104.14,48.417 102.14,45.7503 103.5,40.5C 106.162,38.7319 109.162,38.0653 112.5,38.5C 112.854,42.6372 112.354,46.6372 111,50.5C 109.938,51.0968 108.772,51.4302 107.5,51.5C 105.645,51.6598 104.312,50.9931 103.5,49.5 Z"/></g>
<g><path style="opacity:1" fill="#488ec1" d="M 133.5,38.5 C 137.851,37.533 140.185,39.1996 140.5,43.5C 138.143,43.3367 135.81,43.5034 133.5,44C 135.571,44.9832 137.571,45.6499 139.5,46C 135.408,48.5881 132.741,47.5881 131.5,43C 131.519,41.167 132.185,39.667 133.5,38.5 Z"/></g>
<g><path style="opacity:1" fill="#eef4f9" d="M 117.5,40.5 C 121.161,40.3501 122.161,41.8501 120.5,45C 116.707,45.4866 115.707,43.9866 117.5,40.5 Z"/></g>
<g><path style="opacity:1" fill="#e3eef5" d="M 106.5,40.5 C 107.5,40.5 108.5,40.5 109.5,40.5C 109.5,42.1667 109.5,43.8333 109.5,45.5C 108.167,45.5 106.833,45.5 105.5,45.5C 105.366,43.7085 105.699,42.0418 106.5,40.5 Z"/></g>
<g><path style="opacity:1" fill="#f9f9f9" d="M 1793.5,45.5 C 1796.85,45.335 1800.18,45.5017 1803.5,46C 1804.5,47 1805.5,48 1806.5,49C 1801.1,52.2729 1795.77,52.2729 1790.5,49C 1791.71,47.9609 1792.71,46.7942 1793.5,45.5 Z"/></g>
<g><path style="opacity:1" fill="#98a1aa" d="M 141.5,46.5 C 141.56,45.9569 141.893,45.6236 142.5,45.5C 143.429,46.6888 143.762,48.0222 143.5,49.5C 147.5,49.8333 147.5,50.1667 143.5,50.5C 143.719,51.675 143.386,52.675 142.5,53.5C 141.494,53.0623 141.494,52.3957 142.5,51.5C 139.914,50.52 137.247,50.1866 134.5,50.5C 134.5,52.8333 134.5,55.1667 134.5,57.5C 133.178,57.67 132.011,57.3366 131,56.5C 130.505,54.5273 130.338,52.5273 130.5,50.5C 129.022,50.238 127.689,50.5713 126.5,51.5C 127.325,52.3857 128.325,52.719 129.5,52.5C 129.5,54.1667 129.5,55.8333 129.5,57.5C 128.167,57.5 126.833,57.5 125.5,57.5C 125.5,55.1667 125.5,52.8333 125.5,50.5C 121.486,50.6655 117.486,50.4988 113.5,50C 123.161,49.5002 132.828,49.3335 142.5,49.5C 142.737,48.209 142.404,47.209 141.5,46.5 Z"/></g>
<g><path style="opacity:1" fill="#8b8b8b" d="M 1756.5,49.5 C 1758.6,49.2011 1760.6,49.5344 1762.5,50.5C 1761.31,52.3837 1759.64,52.8837 1757.5,52C 1756.75,51.3292 1756.41,50.4959 1756.5,49.5 Z"/></g>
<g><path style="opacity:1" fill="#8d97a1" d="M 112.5,52.5 C 114.527,52.3379 116.527,52.5045 118.5,53C 119.731,54.1827 119.731,55.3493 118.5,56.5C 117.459,54.0087 116.626,54.0087 116,56.5C 115.374,54.0087 114.541,54.0087 113.5,56.5C 112.571,55.3112 112.238,53.9778 112.5,52.5 Z"/></g>
<g><path style="opacity:1" fill="#9099a3" d="M 136.5,52.5 C 139.084,53.0483 140.084,54.715 139.5,57.5C 135.716,57.4747 134.716,55.8081 136.5,52.5 Z"/></g>
<g><path style="opacity:1" fill="#858f9a" d="M 121.5,52.5 C 124.956,53.5362 125.29,55.2029 122.5,57.5C 120.296,56.218 119.962,54.5514 121.5,52.5 Z"/></g>
<g><path style="opacity:1" fill="#82b4d5" d="M 138.5,64.5 C 139.222,64.9175 139.722,65.5842 140,66.5C 141.975,66.5117 144.142,66.1784 146.5,65.5C 146.5,66.5 146.5,67.5 146.5,68.5C 143.289,68.988 140.456,68.3213 138,66.5C 137.174,68.4054 136.007,68.7388 134.5,67.5C 135.901,66.4793 137.235,65.4793 138.5,64.5 Z"/></g>
<g><path style="opacity:1" fill="#a0c5df" d="M 113.5,64.5 C 116.093,65.7701 118.593,66.4368 121,66.5C 121.345,68.2009 120.678,69.5342 119,70.5C 118,69.1667 117,67.8333 116,66.5C 112.019,68.4687 107.686,69.4687 103,69.5C 100.53,69.6597 98.3636,68.9931 96.5,67.5C 97.3279,66.5853 98.3279,65.9186 99.5,65.5C 102.603,65.5801 105.603,65.9134 108.5,66.5C 110.336,65.9724 112.003,65.3058 113.5,64.5 Z"/></g>
<g><path style="opacity:1" fill="#a6c8e1" d="M 122.5,65.5 C 125.688,66.0193 129.354,66.0193 133.5,65.5C 133.5,66.5 133.5,67.5 133.5,68.5C 131.208,68.2436 129.041,68.5769 127,69.5C 125.691,67.1088 124.691,67.1088 124,69.5C 123.209,68.255 122.709,66.9217 122.5,65.5 Z"/></g>
<g><path style="opacity:1" fill="#f0f1f5" d="M 1842.5,86.5 C 1842.5,384.5 1842.5,682.5 1842.5,980.5C 1253.83,980.5 665.167,980.5 76.5,980.5C 76.5,964.5 76.5,948.5 76.5,932.5C 76.5,863.833 76.5,795.167 76.5,726.5C 76.8333,726.5 77.1667,726.5 77.5,726.5C 104.167,726.5 130.833,726.5 157.5,726.5C 157.5,720.5 157.5,714.5 157.5,708.5C 131.339,707.502 105.005,707.169 78.5,707.5C 78.6667,502.166 78.5,296.833 78,91.5C 77.6667,91.1667 77.3333,90.8333 77,90.5C 76.5,201.166 76.3333,311.833 76.5,422.5C 75.5005,310.668 75.1672,198.668 75.5,86.5C 664.5,86.5 1253.5,86.5 1842.5,86.5 Z"/></g>
<g><path style="opacity:1" fill="#d6d8db" d="M 157.5,708.5 C 130.833,708.5 104.167,708.5 77.5,708.5C 77.5,714.5 77.5,720.5 77.5,726.5C 77.1667,726.5 76.8333,726.5 76.5,726.5C 76.5,625.167 76.5,523.833 76.5,422.5C 76.3333,311.833 76.5,201.166 77,90.5C 77.3333,90.8333 77.6667,91.1667 78,91.5C 78.5,296.833 78.6667,502.166 78.5,707.5C 105.005,707.169 131.339,707.502 157.5,708.5 Z"/></g>
<g><path style="opacity:1" fill="#2c2c2c" d="M 30.5,101.5 C 32.1667,101.5 33.8333,101.5 35.5,101.5C 35.5,103.833 35.5,106.167 35.5,108.5C 33.8333,108.5 32.1667,108.5 30.5,108.5C 30.5,106.167 30.5,103.833 30.5,101.5 Z"/></g>
<g><path style="opacity:1" fill="#252625" d="M 37.5,101.5 C 39.1667,101.5 40.8333,101.5 42.5,101.5C 42.5,102.833 42.5,104.167 42.5,105.5C 40.8333,105.5 39.1667,105.5 37.5,105.5C 37.5,104.167 37.5,102.833 37.5,101.5 Z"/></g>
<g><path style="opacity:1" fill="#2c2c2c" d="M 37.5,106.5 C 39.1667,106.5 40.8333,106.5 42.5,106.5C 42.5,108.833 42.5,111.167 42.5,113.5C 40.8333,113.5 39.1667,113.5 37.5,113.5C 37.5,111.167 37.5,108.833 37.5,106.5 Z"/></g>
<g><path style="opacity:1" fill="#252625" d="M 30.5,109.5 C 32.1667,109.5 33.8333,109.5 35.5,109.5C 35.5,110.833 35.5,112.167 35.5,113.5C 33.8333,113.5 32.1667,113.5 30.5,113.5C 30.5,112.167 30.5,110.833 30.5,109.5 Z"/></g>
<g><path style="opacity:1" fill="#663f2d" d="M 103.5,113.5 C 101.833,113.5 100.167,113.5 98.5,113.5C 98.5,114.833 98.5,116.167 98.5,117.5C 100.167,117.5 101.833,117.5 103.5,117.5C 102.081,118.451 100.415,118.784 98.5,118.5C 98.6567,119.873 98.49,121.207 98,122.5C 97.5017,119.183 97.335,115.85 97.5,112.5C 99.7354,112.205 101.735,112.539 103.5,113.5 Z"/></g>
<g><path style="opacity:1" fill="#c8c2c6" d="M 103.5,113.5 C 104.833,114.833 104.833,116.167 103.5,117.5C 101.833,117.5 100.167,117.5 98.5,117.5C 98.5,116.167 98.5,114.833 98.5,113.5C 100.167,113.5 101.833,113.5 103.5,113.5 Z"/></g>
<g><path style="opacity:1" fill="#4b435b" d="M 116.5,115.5 C 116.167,115.5 115.833,115.5 115.5,115.5C 114.504,115.414 113.671,115.748 113,116.5C 112.667,117.833 112.333,119.167 112,120.5C 110.5,115.503 112,113.837 116.5,115.5 Z"/></g>
<g><path style="opacity:1" fill="#354681" d="M 119.5,114.5 C 120.808,118.019 120.808,121.685 119.5,125.5C 119.377,122.114 119.377,118.447 119.5,114.5 Z"/></g>
<g><path style="opacity:1" fill="#35385d" d="M 158.5,117.5 C 157.081,118.451 155.415,118.784 153.5,118.5C 153.657,119.873 153.49,121.207 153,122.5C 152.502,119.183 152.335,115.85 152.5,112.5C 154.527,112.338 156.527,112.505 158.5,113C 159.801,114.616 159.801,116.116 158.5,117.5 Z"/></g>
<g><path style="opacity:1" fill="#e1e0d8" d="M 158.5,117.5 C 156.833,117.5 155.167,117.5 153.5,117.5C 153.5,116.167 153.5,114.833 153.5,113.5C 156.95,112.756 158.616,114.09 158.5,117.5 Z"/></g>
<g><path style="opacity:1" fill="#4a304e" d="M 137.5,113.5 C 138.289,113.783 138.956,114.283 139.5,115C 138.652,117.671 138.319,120.171 138.5,122.5C 137.285,119.38 136.951,116.38 137.5,113.5 Z"/></g>
<g><path style="opacity:1" fill="#673f35" d="M 172.5,121.5 C 173.833,119.5 173.833,117.5 172.5,115.5C 173.117,115.389 173.617,115.056 174,114.5C 174.667,117.833 174.667,121.167 174,124.5C 173.768,123.263 173.268,122.263 172.5,121.5 Z"/></g>
<g><path style="opacity:1" fill="#e9eae2" d="M 172.5,115.5 C 173.833,117.5 173.833,119.5 172.5,121.5C 171.307,121.03 170.64,120.03 170.5,118.5C 170.64,116.97 171.307,115.97 172.5,115.5 Z"/></g>
<g><path style="opacity:1" fill="#967a6e" d="M 115.5,115.5 C 115.833,115.5 116.167,115.5 116.5,115.5C 117.622,117.288 117.789,119.288 117,121.5C 115.951,122.517 114.784,122.684 113.5,122C 115.25,120.246 115.917,118.079 115.5,115.5 Z"/></g>
<g><path style="opacity:1" fill="#393446" d="M 127.5,115.5 C 128.404,116.209 128.737,117.209 128.5,118.5C 126.234,118.141 124.401,118.808 123,120.5C 121.5,115.503 123,113.837 127.5,115.5 Z"/></g>
<g><path style="opacity:1" fill="#e2ddd1" d="M 127.5,115.5 C 126.796,117.344 125.463,117.844 123.5,117C 124.563,115.812 125.897,115.312 127.5,115.5 Z"/></g>
<g><path style="opacity:1" fill="#6a595c" d="M 141.5,114.5 C 143.429,114.231 145.095,114.731 146.5,116C 145.049,115.737 143.716,115.904 142.5,116.5C 143.32,118.111 144.654,118.778 146.5,118.5C 146.592,122.071 144.926,123.238 141.5,122C 142.624,121.751 143.624,121.251 144.5,120.5C 142.947,119.561 141.613,118.394 140.5,117C 140.743,116.098 141.077,115.265 141.5,114.5 Z"/></g>
<g><path style="opacity:1" fill="#4d3c42" d="M 181.5,115.5 C 182.404,116.209 182.737,117.209 182.5,118.5C 180.833,118.5 179.167,118.5 177.5,118.5C 176.327,120.846 176.327,119.679 177.5,115C 179.066,114.235 180.399,114.402 181.5,115.5 Z"/></g>
<g><path style="opacity:1" fill="#e7e5db" d="M 181.5,115.5 C 181.052,117.465 180.052,117.798 178.5,116.5C 179.325,115.614 180.325,115.281 181.5,115.5 Z"/></g>
<g><path style="opacity:1" fill="#5584bb" d="M 107.5,114.5 C 108.552,114.351 109.552,114.517 110.5,115C 108.862,117.133 108.029,119.633 108,122.5C 107.503,119.854 107.336,117.187 107.5,114.5 Z"/></g>
<g><path style="opacity:1" fill="#5c6b8f" d="M 131.5,114.5 C 132.552,114.351 133.552,114.517 134.5,115C 131.232,116.911 130.899,119.078 133.5,121.5C 134.086,121.291 134.586,120.957 135,120.5C 135.432,121.6 134.932,122.267 133.5,122.5C 132.558,122.392 131.725,122.059 131,121.5C 130.297,119.071 130.463,116.738 131.5,114.5 Z"/></g>
<g><path style="opacity:1" fill="#716a7d" d="M 172.5,115.5 C 171.307,115.97 170.64,116.97 170.5,118.5C 170.64,120.03 171.307,121.03 172.5,121.5C 169.683,123.05 168.35,122.05 168.5,118.5C 168.35,114.95 169.683,113.95 172.5,115.5 Z"/></g>
<g><path style="opacity:1" fill="#634d45" d="M 164.5,121.5 C 163.791,122.404 162.791,122.737 161.5,122.5C 161.5,120.833 161.5,119.167 161.5,117.5C 163.451,117.773 164.951,117.107 166,115.5C 166.236,117.764 166.736,119.931 167.5,122C 166.423,122.47 165.423,122.303 164.5,121.5 Z"/></g>
<g><path style="opacity:1" fill="#e2e8e3" d="M 164.5,121.5 C 162.952,121.179 162.285,120.179 162.5,118.5C 165.248,118.402 165.914,119.402 164.5,121.5 Z"/></g>
<g><path style="opacity:1" fill="#fdfdfd" d="M 269.5,143.5 C 368.833,143.5 468.167,143.5 567.5,143.5C 567.5,156.167 567.5,168.833 567.5,181.5C 468.167,181.5 368.833,181.5 269.5,181.5C 269.5,168.833 269.5,156.167 269.5,143.5 Z"/></g>
<g><path style="opacity:1" fill="#2d2d2d" d="M 39.5,148.5 C 40.8333,148.5 42.1667,148.5 43.5,148.5C 42.4725,152.887 40.6392,156.887 38,160.5C 35.6262,163.288 34.2929,162.954 34,159.5C 32.6932,158.228 31.1932,157.228 29.5,156.5C 33.1186,154.217 36.452,151.551 39.5,148.5 Z"/></g>
<g><path style="opacity:1" fill="#e6e6e6" d="M 37.5,151.5 C 39.4646,151.948 39.7979,152.948 38.5,154.5C 37.6143,153.675 37.281,152.675 37.5,151.5 Z"/></g>
<g><path style="opacity:1" fill="#b9acad" d="M 281.5,156.5 C 286.386,155.405 288.052,157.072 286.5,161.5C 285.264,162.246 283.93,162.579 282.5,162.5C 282.657,163.873 282.49,165.207 282,166.5C 281.502,163.183 281.335,159.85 281.5,156.5 Z"/></g>
<g><path style="opacity:1" fill="#bca19e" d="M 328.5,160.5 C 327.542,160.047 326.708,159.381 326,158.5C 325.667,161.167 325.333,163.833 325,166.5C 324.176,163.118 324.343,159.784 325.5,156.5C 327.288,157.283 328.288,158.616 328.5,160.5 Z"/></g>
<g><path style="opacity:1" fill="#333333" d="M 30.5,158.5 C 31.3094,159.469 32.3094,160.302 33.5,161C 32.552,161.483 31.552,161.649 30.5,161.5C 30.5,160.5 30.5,159.5 30.5,158.5 Z"/></g>
<g><path style="opacity:1" fill="#ff8e90" d="M 359.5,156.5 C 360.222,156.918 360.722,157.584 361,158.5C 361.718,157.549 362.551,157.383 363.5,158C 362.055,161.081 360.055,161.747 357.5,160C 356.952,158.404 357.618,157.237 359.5,156.5 Z"/></g>
<g><path style="opacity:1" fill="#d5d6d9" d="M 316.5,158.5 C 317.756,158.461 318.756,158.961 319.5,160C 318.167,162 318.167,164 319.5,166C 316.94,165.786 314.274,165.786 311.5,166C 310.424,164.274 310.257,162.441 311,160.5C 312.948,159.891 314.782,159.224 316.5,158.5 Z"/></g>
<g><path style="opacity:1" fill="#9f919c" d="M 340.5,159.5 C 343.5,159.5 346.5,159.5 349.5,159.5C 349.663,161.857 349.497,164.19 349,166.5C 348.505,164.527 348.338,162.527 348.5,160.5C 347.5,160.5 346.5,160.5 345.5,160.5C 345.167,168.5 344.833,168.5 344.5,160.5C 343.5,160.5 342.5,160.5 341.5,160.5C 341.662,162.527 341.495,164.527 341,166.5C 340.503,164.19 340.337,161.857 340.5,159.5 Z"/></g>
<g><path style="opacity:1" fill="#b5a198" d="M 328.5,160.5 C 329.117,160.611 329.617,160.944 330,161.5C 330.333,159.833 330.667,158.167 331,156.5C 331.667,159.833 331.667,163.167 331,166.5C 329.878,164.593 329.045,162.593 328.5,160.5 Z"/></g>
<g><path style="opacity:1" fill="#a7a2ad" d="M 334.5,159.5 C 335.833,159.5 337.167,159.5 338.5,159.5C 338.5,161.833 338.5,164.167 338.5,166.5C 336.833,166.5 335.167,166.5 333.5,166.5C 333.633,163.104 334.633,162.771 336.5,165.5C 336.833,164.667 337.167,163.833 337.5,163C 336.592,161.402 335.592,160.236 334.5,159.5 Z"/></g>
<g><path style="opacity:1" fill="#2a2a2a" d="M 30.5,197.5 C 34.5138,197.334 38.5138,197.501 42.5,198C 42.9574,198.414 43.2907,198.914 43.5,199.5C 39.2172,200.492 34.8839,200.826 30.5,200.5C 30.5,199.5 30.5,198.5 30.5,197.5 Z"/></g>
<g><path style="opacity:1" fill="#292929" d="M 30.5,202.5 C 31.5,202.5 32.5,202.5 33.5,202.5C 33.5,204.833 33.5,207.167 33.5,209.5C 32.5,209.5 31.5,209.5 30.5,209.5C 30.5,207.167 30.5,204.833 30.5,202.5 Z"/></g>
<g><path style="opacity:1" fill="#252625" d="M 35.5,202.5 C 36.5,202.5 37.5,202.5 38.5,202.5C 38.5,204.833 38.5,207.167 38.5,209.5C 37.5,209.5 36.5,209.5 35.5,209.5C 35.5,207.167 35.5,204.833 35.5,202.5 Z"/></g>
<g><path style="opacity:1" fill="#3a3a3a" d="M 39.5,202.5 C 40.8333,202.5 42.1667,202.5 43.5,202.5C 43.6621,204.527 43.4955,206.527 43,208.5C 41.9887,209.337 40.8221,209.67 39.5,209.5C 39.5,207.167 39.5,204.833 39.5,202.5 Z"/></g>
<g><path style="opacity:1" fill="#fefefe" d="M 444.5,207.5 C 784.5,207.333 1124.5,207.5 1464.5,208C 1465.67,356.764 1465.83,505.597 1465,654.5C 1124.9,655.666 784.736,655.833 444.5,655C 443.167,505.833 443.167,356.667 444.5,207.5 Z"/></g>
<g><path style="opacity:1" fill="#403d49" d="M 501.5,232.5 C 502.922,232.75 503.922,233.583 504.5,235C 503.167,238 503.167,241 504.5,244C 503.216,244.684 502.049,244.517 501,243.5C 500.782,240.574 500.282,237.74 499.5,235C 500.381,234.292 501.047,233.458 501.5,232.5 Z"/></g>
<g><path style="opacity:1" fill="#3d3c48" d="M 484.5,242.5 C 484.833,243.167 485.167,243.833 485.5,244.5C 484.178,244.67 483.011,244.337 482,243.5C 481.782,240.574 481.282,237.74 480.5,235C 481.793,234.51 483.127,234.343 484.5,234.5C 484.5,237.167 484.5,239.833 484.5,242.5 Z"/></g>
<g><path style="opacity:1" fill="#282841" d="M 486.5,235.5 C 487.209,234.596 488.209,234.263 489.5,234.5C 489.216,237.777 489.549,240.943 490.5,244C 489.552,244.483 488.552,244.649 487.5,244.5C 487.81,241.287 487.477,238.287 486.5,235.5 Z"/></g>
<g><path style="opacity:1" fill="#4a373b" d="M 546.5,236.5 C 545.221,239.002 545.221,241.502 546.5,244C 544.833,244.667 543.167,244.667 541.5,244C 542.833,241 542.833,238 541.5,235C 543.543,234.36 545.21,234.86 546.5,236.5 Z"/></g>
<g><path style="opacity:1" fill="#3e373f" d="M 516.5,235.5 C 521.077,234.974 525.744,234.641 530.5,234.5C 530.216,237.777 530.549,240.943 531.5,244C 530.167,244.667 528.833,244.667 527.5,244C 528.435,241.619 528.768,239.119 528.5,236.5C 527.5,236.5 526.5,236.5 525.5,236.5C 525.232,239.119 525.565,241.619 526.5,244C 525.207,244.49 523.873,244.657 522.5,244.5C 522.5,241.833 522.5,239.167 522.5,236.5C 521.5,236.5 520.5,236.5 519.5,236.5C 519.232,239.119 519.565,241.619 520.5,244C 519.167,244.667 517.833,244.667 516.5,244C 517.817,241.063 517.817,238.23 516.5,235.5 Z"/></g>
<g><path style="opacity:1" fill="#453b60" d="M 546.5,236.5 C 548.476,233.7 549.309,234.033 549,237.5C 548.329,236.748 547.496,236.414 546.5,236.5 Z"/></g>
<g><path style="opacity:1" fill="#463a42" d="M 508.5,234.5 C 513.989,234.504 515.822,237.171 514,242.5C 509.52,245.75 507.02,244.583 506.5,239C 506.759,237.213 507.425,235.713 508.5,234.5 Z"/></g>
<g><path style="opacity:1" fill="#464049" d="M 496.5,243.5 C 495.152,241.303 493.485,239.303 491.5,237.5C 491.608,236.558 491.941,235.725 492.5,235C 494.259,234.202 495.926,234.369 497.5,235.5C 496.313,235.554 494.98,235.887 493.5,236.5C 494.655,237.95 496.155,238.95 498,239.5C 498.844,241.463 498.344,242.796 496.5,243.5 Z"/></g>
<g><path style="opacity:1" fill="#f0f4ec" d="M 509.5,235.5 C 510.748,236.334 511.415,237.667 511.5,239.5C 511.167,240.833 510.833,242.167 510.5,243.5C 509.52,240.914 509.187,238.247 509.5,235.5 Z"/></g>
<g><path style="opacity:1" fill="#463f45" d="M 534.5,234.5 C 538.938,233.425 540.938,235.092 540.5,239.5C 538.833,239.5 537.167,239.5 535.5,239.5C 535.22,242.388 536.553,243.888 539.5,244C 537.299,244.825 535.466,244.325 534,242.5C 533.278,239.739 533.445,237.073 534.5,234.5 Z"/></g>
<g><path style="opacity:1" fill="#493d40" d="M 469.5,230.5 C 472.5,230.5 475.5,230.5 478.5,230.5C 478.79,234.554 478.123,235.054 476.5,232C 469.999,231.188 467.832,234.021 470,240.5C 471.305,243.306 473.472,244.14 476.5,243C 478.051,239.64 478.551,239.807 478,243.5C 466.169,245.16 463.335,240.827 469.5,230.5 Z"/></g>
<g><path style="opacity:1" fill="#9c734a" d="M 486.5,235.5 C 487.477,238.287 487.81,241.287 487.5,244.5C 486.833,244.5 486.167,244.5 485.5,244.5C 485.167,243.833 484.833,243.167 484.5,242.5C 486.344,240.721 487.01,238.388 486.5,235.5 Z"/></g>
<g><path style="opacity:1" fill="#594645" d="M 496.5,243.5 C 495.081,244.451 493.415,244.784 491.5,244.5C 491.351,243.448 491.517,242.448 492,241.5C 493.049,243.107 494.549,243.773 496.5,243.5 Z"/></g>
<g><path style="opacity:1" fill="#2f2f2f" d="M 31.5,245.5 C 33.1667,245.5 34.8333,245.5 36.5,245.5C 36.5,246.833 36.5,248.167 36.5,249.5C 38.2915,249.634 39.9582,249.301 41.5,248.5C 41.5,251.833 41.5,255.167 41.5,258.5C 38.1667,258.5 34.8333,258.5 31.5,258.5C 31.5,254.167 31.5,249.833 31.5,245.5 Z"/></g>
<g><path style="opacity:1" fill="#747474" d="M 31.5,245.5 C 35.6642,243.576 38.9975,244.576 41.5,248.5C 39.9582,249.301 38.2915,249.634 36.5,249.5C 36.5,248.167 36.5,246.833 36.5,245.5C 34.8333,245.5 33.1667,245.5 31.5,245.5 Z"/></g>
<g><path style="opacity:1" fill="#c4c4c4" d="M 35.5,250.5 C 38.0838,251.048 39.0838,252.715 38.5,255.5C 33.5162,255.856 32.5162,254.189 35.5,250.5 Z"/></g>
<g><path style="opacity:1" fill="#cccccc" d="M 937.5,320.5 C 937.667,306.163 937.5,291.829 937,277.5C 936.5,277 936,276.5 935.5,276C 779.833,275.333 624.167,275.333 468.5,276C 468,276.5 467.5,277 467,277.5C 466.5,291.829 466.333,306.163 466.5,320.5C 465.339,306.006 465.172,291.339 466,276.5C 466.5,276 467,275.5 467.5,275C 623.833,274.333 780.167,274.333 936.5,275C 937,275.5 937.5,276 938,276.5C 938.828,291.339 938.661,306.006 937.5,320.5 Z"/></g>
<g><path style="opacity:1" fill="#cccccc" d="M 1442.5,320.5 C 1442.67,306.163 1442.5,291.829 1442,277.5C 1441.5,277 1441,276.5 1440.5,276C 1284.83,275.333 1129.17,275.333 973.5,276C 973,276.5 972.5,277 972,277.5C 971.5,291.829 971.333,306.163 971.5,320.5C 970.339,306.006 970.172,291.339 971,276.5C 971.5,276 972,275.5 972.5,275C 1128.83,274.333 1285.17,274.333 1441.5,275C 1442,275.5 1442.5,276 1443,276.5C 1443.83,291.339 1443.66,306.006 1442.5,320.5 Z"/></g>
<g><path style="opacity:1" fill="#fefefe" d="M 937.5,320.5 C 780.5,321.833 623.5,321.833 466.5,320.5C 466.333,306.163 466.5,291.829 467,277.5C 467.5,277 468,276.5 468.5,276C 624.167,275.333 779.833,275.333 935.5,276C 936,276.5 936.5,277 937,277.5C 937.5,291.829 937.667,306.163 937.5,320.5 Z"/></g>
<g><path style="opacity:1" fill="#fefefe" d="M 1442.5,320.5 C 1285.5,321.833 1128.5,321.833 971.5,320.5C 971.333,306.163 971.5,291.829 972,277.5C 972.5,277 973,276.5 973.5,276C 1129.17,275.333 1284.83,275.333 1440.5,276C 1441,276.5 1441.5,277 1442,277.5C 1442.5,291.829 1442.67,306.163 1442.5,320.5 Z"/></g>
<g><path style="opacity:1" fill="#373737" d="M 31.5,292.5 C 35.287,291.814 38.4537,292.814 41,295.5C 41.4986,299.152 41.6653,302.818 41.5,306.5C 38.1667,306.5 34.8333,306.5 31.5,306.5C 31.5,301.833 31.5,297.167 31.5,292.5 Z"/></g>
<g><path style="opacity:1" fill="#eeeeee" d="M 35.5,297.5 C 39.3258,298.48 39.3258,299.313 35.5,300C 36.448,300.483 37.448,300.649 38.5,300.5C 38.6423,304.223 37.309,305.056 34.5,303C 38.449,302.193 38.449,301.693 34.5,301.5C 34.4326,300.041 34.7659,298.708 35.5,297.5 Z"/></g>
<g><path style="opacity:1" fill="#cccccc" d="M 466.5,320.5 C 623.5,321.833 780.5,321.833 937.5,320.5C 937.389,321.117 937.056,321.617 936.5,322C 780.167,322.667 623.833,322.667 467.5,322C 466.944,321.617 466.611,321.117 466.5,320.5 Z"/></g>
<g><path style="opacity:1" fill="#cccccc" d="M 971.5,320.5 C 1128.5,321.833 1285.5,321.833 1442.5,320.5C 1442.39,321.117 1442.06,321.617 1441.5,322C 1285.17,322.667 1128.83,322.667 972.5,322C 971.944,321.617 971.611,321.117 971.5,320.5 Z"/></g>
<g><path style="opacity:1" fill="#323232" d="M 34.5,342.5 C 35.8333,342.5 37.1667,342.5 38.5,342.5C 38.5,344.167 38.5,345.833 38.5,347.5C 37.1667,347.5 35.8333,347.5 34.5,347.5C 34.5,345.833 34.5,344.167 34.5,342.5 Z"/></g>
<g><path style="opacity:1" fill="#cccccc" d="M 937.5,392.5 C 937.667,378.163 937.5,363.829 937,349.5C 936.5,349 936,348.5 935.5,348C 779.833,347.333 624.167,347.333 468.5,348C 468,348.5 467.5,349 467,349.5C 466.5,363.829 466.333,378.163 466.5,392.5C 465.339,378.006 465.172,363.339 466,348.5C 466.5,348 467,347.5 467.5,347C 623.833,346.333 780.167,346.333 936.5,347C 937,347.5 937.5,348 938,348.5C 938.828,363.339 938.661,378.006 937.5,392.5 Z"/></g>
<g><path style="opacity:1" fill="#cccccc" d="M 1442.5,392.5 C 1442.67,378.163 1442.5,363.829 1442,349.5C 1441.5,349 1441,348.5 1440.5,348C 1284.83,347.333 1129.17,347.333 973.5,348C 973,348.5 972.5,349 972,349.5C 971.5,363.829 971.333,378.163 971.5,392.5C 970.339,378.006 970.172,363.339 971,348.5C 971.5,348 972,347.5 972.5,347C 1128.83,346.333 1285.17,346.333 1441.5,347C 1442,347.5 1442.5,348 1443,348.5C 1443.83,363.339 1443.66,378.006 1442.5,392.5 Z"/></g>
<g><path style="opacity:1" fill="#fefefe" d="M 937.5,392.5 C 780.5,393.833 623.5,393.833 466.5,392.5C 466.333,378.163 466.5,363.829 467,349.5C 467.5,349 468,348.5 468.5,348C 624.167,347.333 779.833,347.333 935.5,348C 936,348.5 936.5,349 937,349.5C 937.5,363.829 937.667,378.163 937.5,392.5 Z"/></g>
<g><path style="opacity:1" fill="#fefefe" d="M 1442.5,392.5 C 1285.5,393.833 1128.5,393.833 971.5,392.5C 971.333,378.163 971.5,363.829 972,349.5C 972.5,349 973,348.5 973.5,348C 1129.17,347.333 1284.83,347.333 1440.5,348C 1441,348.5 1441.5,349 1442,349.5C 1442.5,363.829 1442.67,378.163 1442.5,392.5 Z"/></g>
<g><path style="opacity:1" fill="#323232" d="M 33.5,348.5 C 36.7977,348.016 39.4643,349.016 41.5,351.5C 38.1667,352.833 34.8333,352.833 31.5,351.5C 32.1925,350.482 32.8592,349.482 33.5,348.5 Z"/></g>
<g><path style="opacity:1" fill="#7dbbf0" d="M 1027.5,364.5 C 1028.2,367.563 1028.87,370.73 1029.5,374C 1028.91,374.464 1028.24,374.631 1027.5,374.5C 1027.5,371.167 1027.5,367.833 1027.5,364.5 Z"/></g>
<g><path style="opacity:1" fill="#824e40" d="M 1027.5,364.5 C 1027.5,367.833 1027.5,371.167 1027.5,374.5C 1027.04,371.51 1026.04,368.677 1024.5,366C 1025.53,365.487 1026.53,364.987 1027.5,364.5 Z"/></g>
<g><path style="opacity:1" fill="#9e8ca6" d="M 1001.5,369.5 C 1000.08,370.451 998.415,370.784 996.5,370.5C 995.189,368.44 995.189,366.274 996.5,364C 1001.4,364.39 1006.23,364.224 1011,363.5C 1011.66,365.108 1011.16,366.275 1009.5,367C 1010.17,367.333 1010.83,367.667 1011.5,368C 1009.97,368.496 1008.47,368.33 1007,367.5C 1004.97,367.954 1003.14,368.62 1001.5,369.5 Z"/></g>
<g><path style="opacity:1" fill="#d28e94" d="M 1001.5,369.5 C 1004.52,369.335 1007.52,369.502 1010.5,370C 1010.67,371.57 1011,373.403 1011.5,375.5C 1006.16,375.666 1000.82,375.499 995.5,375C 997.991,374.374 997.991,373.541 995.5,372.5C 995.863,371.817 996.196,371.15 996.5,370.5C 998.415,370.784 1000.08,370.451 1001.5,369.5 Z"/></g>
<g><path style="opacity:1" fill="#707070" d="M 39.5,391.5 C 37.5,391.5 35.5,391.5 33.5,391.5C 34.0717,388.756 35.7383,387.923 38.5,389C 39.2524,389.671 39.5858,390.504 39.5,391.5 Z"/></g>
<g><path style="opacity:1" fill="#2b2b2b" d="M 33.5,391.5 C 35.5,391.5 37.5,391.5 39.5,391.5C 40.8221,391.33 41.9887,391.663 43,392.5C 43.6667,395.167 43.6667,397.833 43,400.5C 38.6667,401.833 34.3333,401.833 30,400.5C 29.3333,397.833 29.3333,395.167 30,392.5C 31.0113,391.663 32.1779,391.33 33.5,391.5 Z"/></g>
<g><path style="opacity:1" fill="#cccccc" d="M 466.5,392.5 C 623.5,393.833 780.5,393.833 937.5,392.5C 937.389,393.117 937.056,393.617 936.5,394C 780.167,394.667 623.833,394.667 467.5,394C 466.944,393.617 466.611,393.117 466.5,392.5 Z"/></g>
<g><path style="opacity:1" fill="#cccccc" d="M 971.5,392.5 C 1128.5,393.833 1285.5,393.833 1442.5,392.5C 1442.39,393.117 1442.06,393.617 1441.5,394C 1285.17,394.667 1128.83,394.667 972.5,394C 971.944,393.617 971.611,393.117 971.5,392.5 Z"/></g>
<g><path style="opacity:1" fill="#fefefe" d="M 466.5,419.5 C 791.833,419.5 1117.17,419.5 1442.5,419.5C 1442.5,466.167 1442.5,512.833 1442.5,559.5C 1117.17,559.5 791.833,559.5 466.5,559.5C 466.5,512.833 466.5,466.167 466.5,419.5 Z"/></g>
<g><path style="opacity:1" fill="#d4d4d7" d="M 1430.5,565.5 C 1436.17,565.664 1436.5,565.997 1431.5,566.5C 1431.5,567.5 1431.5,568.5 1431.5,569.5C 1435.35,569.701 1436.35,571.534 1434.5,575C 1432.57,575.783 1431.07,575.283 1430,573.5C 1428.16,575.604 1426,575.938 1423.5,574.5C 1426.08,572.426 1427.58,569.76 1428,566.5C 1429.04,567.623 1429.71,568.956 1430,570.5C 1430.49,568.866 1430.66,567.199 1430.5,565.5 Z"/></g>
<g><path style="opacity:1" fill="#756876" d="M 1301.5,600.5 C 1308.2,599.53 1310.54,602.197 1308.5,608.5C 1307.69,606.577 1307.19,604.577 1307,602.5C 1305.64,601.62 1304.14,601.286 1302.5,601.5C 1302.5,604.167 1302.5,606.833 1302.5,609.5C 1307.5,610.003 1307.17,610.336 1301.5,610.5C 1301.5,607.167 1301.5,603.833 1301.5,600.5 Z"/></g>
<g><path style="opacity:1" fill="#866563" d="M 1245.5,600.5 C 1252.2,599.53 1254.54,602.197 1252.5,608.5C 1251.69,606.577 1251.19,604.577 1251,602.5C 1249.64,601.62 1248.14,601.286 1246.5,601.5C 1246.5,604.167 1246.5,606.833 1246.5,609.5C 1248.2,609.34 1249.87,609.506 1251.5,610C 1249.53,610.495 1247.53,610.662 1245.5,610.5C 1245.5,607.167 1245.5,603.833 1245.5,600.5 Z"/></g>
<g><path style="opacity:1" fill="#6599d2" d="M 1257.5,600.5 C 1258.24,600.369 1258.91,600.536 1259.5,601C 1258.62,604.344 1258.28,607.51 1258.5,610.5C 1257.51,607.232 1257.18,603.898 1257.5,600.5 Z"/></g>
<g><path style="opacity:1" fill="#706173" d="M 1291.5,600.5 C 1293.47,600.261 1295.3,600.594 1297,601.5C 1296.9,604.271 1296.9,606.937 1297,609.5C 1294.25,605.265 1292.58,605.599 1292,610.5C 1291.5,607.183 1291.33,603.85 1291.5,600.5 Z"/></g>
<g><path style="opacity:1" fill="#e9f5fa" d="M 1292.5,601.5 C 1293.5,601.5 1294.5,601.5 1295.5,601.5C 1295.5,602.833 1295.5,604.167 1295.5,605.5C 1294.5,605.5 1293.5,605.5 1292.5,605.5C 1292.5,604.167 1292.5,602.833 1292.5,601.5 Z"/></g>
<g><path style="opacity:1" fill="#73b0ff" d="M 1383.5,600.5 C 1384.75,600.577 1385.58,601.244 1386,602.5C 1386.76,605.053 1387.59,607.553 1388.5,610C 1386.94,610.188 1386.27,609.355 1386.5,607.5C 1384.83,607.5 1383.17,607.5 1381.5,607.5C 1381.77,605.035 1382.43,602.701 1383.5,600.5 Z"/></g>
<g><path style="opacity:1" fill="#848ba4" d="M 1271.5,600.5 C 1273.6,600.201 1275.6,600.534 1277.5,601.5C 1276.09,601.654 1274.42,601.821 1272.5,602C 1271.17,604.333 1271.17,606.667 1272.5,609C 1274.43,609.783 1275.93,609.283 1277,607.5C 1277.48,608.448 1277.65,609.448 1277.5,610.5C 1269.87,610.577 1267.87,607.244 1271.5,600.5 Z"/></g>
<g><path style="opacity:1" fill="#62a8ff" d="M 1372.5,600.5 C 1374.29,600.215 1375.95,600.548 1377.5,601.5C 1376.44,601.906 1375.11,601.906 1373.5,601.5C 1373.5,602.5 1373.5,603.5 1373.5,604.5C 1377.07,604.408 1378.24,606.074 1377,609.5C 1376.25,606.951 1374.58,605.284 1372,604.5C 1371.42,603.072 1371.59,601.738 1372.5,600.5 Z"/></g>
<g><path style="opacity:1" fill="#6eb1ff" d="M 1388.5,601.5 C 1389.21,600.596 1390.21,600.263 1391.5,600.5C 1391.76,603.016 1392.59,605.35 1394,607.5C 1394.33,606.5 1394.67,605.5 1395,604.5C 1395.76,606.809 1395.26,608.809 1393.5,610.5C 1392.38,607.092 1390.71,604.092 1388.5,601.5 Z"/></g>
<g><path style="opacity:1" fill="#7b737e" d="M 1261.5,601.5 C 1263.47,603.493 1265.47,605.493 1267.5,607.5C 1267.39,608.442 1267.06,609.275 1266.5,610C 1264.87,610.494 1263.2,610.66 1261.5,610.5C 1261.35,609.448 1261.52,608.448 1262,607.5C 1262.71,608.973 1263.88,609.64 1265.5,609.5C 1263.78,607.086 1262.44,604.42 1261.5,601.5 Z"/></g>
<g><path style="opacity:1" fill="#756e78" d="M 1282.5,600.5 C 1283.5,600.5 1284.5,600.5 1285.5,600.5C 1286,603.829 1287,606.995 1288.5,610C 1286.94,610.188 1286.27,609.355 1286.5,607.5C 1284.71,607.785 1283.05,607.452 1281.5,606.5C 1281.94,605.494 1282.6,605.494 1283.5,606.5C 1284.61,605.277 1284.78,603.944 1284,602.5C 1283.67,603.167 1283.33,603.833 1283,604.5C 1282.51,603.207 1282.34,601.873 1282.5,600.5 Z"/></g>
<g><path style="opacity:1" fill="#75b1ff" d="M 1400.5,600.5 C 1402.53,600.338 1404.53,600.505 1406.5,601C 1405.21,601.49 1403.87,601.657 1402.5,601.5C 1402.24,602.978 1402.57,604.311 1403.5,605.5C 1405.37,604.437 1405.87,605.104 1405,607.5C 1403.19,606.391 1402.35,607.058 1402.5,609.5C 1404.45,609.193 1406.11,609.193 1407.5,609.5C 1405.26,610.474 1402.92,610.808 1400.5,610.5C 1400.5,607.167 1400.5,603.833 1400.5,600.5 Z"/></g>
<g><path style="opacity:1" fill="#f4f2f0" d="M 157.5,708.5 C 157.5,714.5 157.5,720.5 157.5,726.5C 130.833,726.5 104.167,726.5 77.5,726.5C 77.5,720.5 77.5,714.5 77.5,708.5C 104.167,708.5 130.833,708.5 157.5,708.5 Z"/></g>
<g><path style="opacity:1" fill="#5b86b7" d="M 121.5,711.5 C 122.404,712.209 122.737,713.209 122.5,714.5C 126.5,714.833 126.5,715.167 122.5,715.5C 122.663,717.857 122.497,720.19 122,722.5C 121.501,718.848 121.335,715.182 121.5,711.5 Z"/></g>
<g><path style="opacity:1" fill="#5c3c2f" d="M 82.5,712.5 C 84.8568,712.337 87.1902,712.503 89.5,713C 87.5273,713.495 85.5273,713.662 83.5,713.5C 83.5,714.5 83.5,715.5 83.5,716.5C 91.5,716.833 91.5,717.167 83.5,717.5C 83.5,718.833 83.5,720.167 83.5,721.5C 85.8568,721.337 88.1902,721.503 90.5,722C 87.854,722.497 85.1873,722.664 82.5,722.5C 82.5,719.167 82.5,715.833 82.5,712.5 Z"/></g>
<g><path style="opacity:1" fill="#f1f7f1" d="M 103.5,715.5 C 103.5,717.5 103.5,719.5 103.5,721.5C 100.756,720.928 99.9231,719.262 101,716.5C 101.671,715.748 102.504,715.414 103.5,715.5 Z"/></g>
<g><path style="opacity:1" fill="#6c6d84" d="M 116.5,718.5 C 113.827,718.316 113.16,717.149 114.5,715C 116.403,714.226 118.07,714.56 119.5,716C 118.451,716.492 117.451,716.326 116.5,715.5C 115.438,716.425 115.438,717.425 116.5,718.5 Z"/></g>
<g><path style="opacity:1" fill="#3c3c3c" d="M 145.5,715.5 C 147.044,715.703 148.378,716.37 149.5,717.5C 150.5,716.833 151.5,716.167 152.5,715.5C 153.047,717.712 152.047,719.379 149.5,720.5C 147.389,719.395 146.055,717.729 145.5,715.5 Z"/></g>
<g><path style="opacity:1" fill="#5888be" d="M 92.5,714.5 C 96.8383,714.622 97.1716,714.955 93.5,715.5C 93.6633,717.857 93.4966,720.19 93,722.5C 92.5026,719.854 92.3359,717.187 92.5,714.5 Z"/></g>
<g><path style="opacity:1" fill="#4e4c70" d="M 103.5,715.5 C 102.504,715.414 101.671,715.748 101,716.5C 99.9231,719.262 100.756,720.928 103.5,721.5C 103.5,721.833 103.5,722.167 103.5,722.5C 100.512,722.845 99.1787,721.512 99.5,718.5C 99.3497,714.95 100.683,713.95 103.5,715.5 Z"/></g>
<g><path style="opacity:1" fill="#876a68" d="M 103.5,722.5 C 103.5,722.167 103.5,721.833 103.5,721.5C 103.5,719.5 103.5,717.5 103.5,715.5C 104.117,715.389 104.617,715.056 105,714.5C 105.667,717.833 105.667,721.167 105,724.5C 103.612,725.554 102.112,725.72 100.5,725C 102.119,724.764 103.119,723.931 103.5,722.5 Z"/></g>
<g><path style="opacity:1" fill="#64606e" d="M 116.5,718.5 C 117.5,718.5 118.5,718.5 119.5,718.5C 118.994,722.634 116.994,723.467 113.5,721C 114.549,720.508 115.549,720.674 116.5,721.5C 117.562,720.575 117.562,719.575 116.5,718.5 Z"/></g>
<g><path style="opacity:1" fill="#1b33d5" d="M -0.5,932.5 C 25.1667,932.5 50.8333,932.5 76.5,932.5C 76.5,948.5 76.5,964.5 76.5,980.5C 50.8333,980.5 25.1667,980.5 -0.5,980.5C -0.5,964.5 -0.5,948.5 -0.5,932.5 Z"/></g>
<g><path style="opacity:1" fill="#cdd1f5" d="M 33.5,952.5 C 33.8966,951.475 34.5632,951.308 35.5,952C 37.5852,953.041 39.2519,954.541 40.5,956.5C 38.4698,958.607 36.3031,960.607 34,962.5C 33.3333,961.833 33.3333,961.167 34,960.5C 35.6349,959.274 37.1349,957.941 38.5,956.5C 36.8144,955.143 35.1477,953.81 33.5,952.5 Z"/></g>
</svg>
