<svg width="24" height="24" viewBox="0 0 24 24" fill="none" xmlns="http://www.w3.org/2000/svg">
<g opacity="0.8">
<path d="M23.6218 16.3672C22.2858 15.2718 20.8466 14.5449 20.5568 14.4024C20.5224 14.3877 20.5027 14.3533 20.5027 14.314V12.2362C20.7631 12.0643 20.935 11.7647 20.935 11.4258V9.26938C20.935 8.19857 20.0656 7.32915 18.9947 7.32915H18.7639H18.533C17.4622 7.32915 16.5928 8.19857 16.5928 9.26938V11.4258C16.5928 11.7647 16.7647 12.0594 17.025 12.2362V14.314C17.025 14.3287 17.0201 14.3386 17.0201 14.3484C17.4278 14.6284 17.8552 14.9427 18.2727 15.2866C18.759 15.6894 19.0389 16.2788 19.0389 16.9174V18.6513H24.0001V17.1728C24.0001 16.8633 23.8625 16.5637 23.6218 16.3672Z" fill="#3D3D3D"/>
<path d="M17.7082 15.9693C16.1412 14.6824 14.4515 13.8277 14.1028 13.6558C14.0635 13.6361 14.0389 13.5969 14.0389 13.5526V11.1114C14.3484 10.9051 14.5498 10.5563 14.5498 10.1634V7.62878C14.5498 6.3713 13.5281 5.34961 12.2706 5.34961H12.0004H11.7303C10.4728 5.34961 9.45111 6.3713 9.45111 7.62878V10.1585C9.45111 10.5563 9.6525 10.9051 9.96195 11.1065V13.5477C9.96195 13.5919 9.93739 13.6312 9.8981 13.6509C9.55426 13.8179 7.86453 14.6726 6.29269 15.9644C6.0078 16.1953 5.8457 16.544 5.8457 16.9124V18.6464H12.0004H18.1552V16.9124C18.1552 16.549 17.9931 16.2002 17.7082 15.9693Z" fill="#3D3D3D"/>
<path d="M6.97503 14.314V12.2362C7.23537 12.0643 7.40729 11.7647 7.40729 11.4258V9.26938C7.40729 8.19857 6.53786 7.32915 5.46705 7.32915H5.23619H5.00532C3.93451 7.32915 3.06508 8.19857 3.06508 9.26938V11.4258C3.06508 11.7647 3.237 12.0594 3.49734 12.2362V14.314C3.49734 14.3484 3.47769 14.3828 3.44331 14.4024C3.14859 14.5449 1.70937 15.2718 0.378224 16.3672C0.137536 16.5637 0 16.8633 0 17.1728V18.6513H4.96111V16.9174C4.96111 16.2837 5.2411 15.6894 5.72738 15.2866C6.1449 14.9427 6.57225 14.6284 6.97994 14.3484C6.97994 14.3386 6.97503 14.3287 6.97503 14.314Z" fill="#3D3D3D"/>
</g>
</svg>
