<svg width="16" height="17" viewBox="0 0 16 17" fill="none" xmlns="http://www.w3.org/2000/svg">
<path d="M13.0612 0.000175802H2.9025C2.13271 0.000175802 1.39445 0.237229 0.850124 0.659186C0.305801 1.08114 3.49745e-06 1.65344 3.49745e-06 2.25018V15.9021C-0.000471293 16.0428 0.0474027 16.1812 0.138709 16.3029C0.230016 16.4246 0.361464 16.5252 0.519554 16.5945C0.677643 16.6638 0.856677 16.6992 1.03827 16.6972C1.21986 16.6951 1.39746 16.6556 1.55284 16.5827L4.22313 15.3452C4.26341 15.3257 4.30992 15.3154 4.35737 15.3154C4.40482 15.3154 4.45133 15.3257 4.49161 15.3452L7.45941 16.7233C7.61748 16.7963 7.79788 16.8351 7.98186 16.8358C8.16845 16.837 8.35182 16.7981 8.51156 16.7233L11.4939 15.3452C11.5327 15.3256 11.5781 15.3151 11.6245 15.3151C11.6709 15.3151 11.7162 15.3256 11.7551 15.3452L14.4472 16.5827C14.6025 16.6556 14.7801 16.6951 14.9617 16.6972C15.1433 16.6992 15.3224 16.6638 15.4804 16.5945C15.6385 16.5252 15.77 16.4246 15.8613 16.3029C15.9526 16.1812 16.0005 16.0428 16 15.9021V2.25018C16 1.95232 15.9238 1.65742 15.7756 1.38259C15.6275 1.10776 15.4105 0.858462 15.1371 0.649159C14.8637 0.439855 14.5394 0.274712 14.1831 0.163307C13.8268 0.0519016 13.4454 -0.0035474 13.0612 0.000175802ZM5.57279 9.6133C5.53482 9.52914 5.52321 9.43918 5.53891 9.35085C5.5546 9.26252 5.59716 9.17835 5.66308 9.10528C5.72899 9.03221 5.81636 8.97233 5.918 8.93059C6.01963 8.88884 6.13261 8.86642 6.24762 8.86518C6.39088 8.8621 6.53212 8.89197 6.6535 8.95103C6.77489 9.01009 6.871 9.0957 6.92971 9.19705C7.02042 9.3781 7.19045 9.52861 7.40998 9.6222C7.62952 9.71579 7.88454 9.74649 8.13035 9.70892C8.37617 9.67135 8.59707 9.5679 8.75434 9.41671C8.91161 9.26552 8.99521 9.07624 8.99048 8.88205C8.99239 8.77125 8.96614 8.66123 8.9132 8.5583C8.86027 8.45536 8.7817 8.36151 8.68197 8.28211C8.58225 8.20272 8.46332 8.13933 8.33199 8.09556C8.20066 8.0518 8.05949 8.02852 7.91655 8.02705C7.491 8.02153 7.07393 7.93388 6.70303 7.77204C6.33214 7.61021 6.01911 7.37927 5.79224 7.10012C5.56537 6.82096 5.43181 6.50239 5.40363 6.17317C5.37545 5.84396 5.45354 5.5145 5.63084 5.21455C5.77297 4.9606 5.987 4.7347 6.25706 4.55359C6.52712 4.37248 6.8463 4.2408 7.19093 4.1683V3.52143C7.19093 3.37224 7.26738 3.22917 7.40346 3.12368C7.53954 3.01819 7.72411 2.95893 7.91655 2.95893C8.109 2.95893 8.29357 3.01819 8.42965 3.12368C8.56573 3.22917 8.64218 3.37224 8.64218 3.52143V4.18518C9.03899 4.27378 9.40076 4.43818 9.69433 4.6633C9.9429 4.8534 10.1381 5.0813 10.2676 5.33268C10.2985 5.41471 10.305 5.50114 10.2864 5.58539C10.2678 5.66965 10.2247 5.74951 10.1604 5.81892C10.096 5.88832 10.0121 5.94545 9.915 5.98595C9.8179 6.02646 9.71017 6.04928 9.6 6.05268C9.45712 6.05785 9.31546 6.03018 9.19282 5.97313C9.07017 5.91608 8.97201 5.83221 8.91066 5.73205C8.85312 5.63133 8.77192 5.53977 8.6712 5.46205C8.47859 5.31193 8.21863 5.22528 7.94558 5.22018C7.66202 5.22166 7.39072 5.31003 7.19089 5.46599C6.99105 5.62195 6.87891 5.83286 6.87891 6.05268C6.88014 6.26905 6.98716 6.47701 7.17837 6.63463C7.36959 6.79226 7.63078 6.88782 7.9093 6.90205C8.51969 6.91266 9.10661 7.08642 9.57073 7.39393C10.0348 7.70144 10.3477 8.12381 10.4562 8.58955C10.539 9.05778 10.4011 9.53345 10.0679 9.9292C9.73467 10.325 9.22844 10.6142 8.64218 10.7439V11.3796C8.64218 11.5287 8.56573 11.6718 8.42965 11.7773C8.29357 11.8828 8.109 11.9421 7.91655 11.9421C7.72411 11.9421 7.53954 11.8828 7.40346 11.7773C7.26738 11.6718 7.19093 11.5287 7.19093 11.3796V10.7552C6.82894 10.6697 6.49598 10.5229 6.21613 10.3254C5.93628 10.1279 5.71654 9.88467 5.57279 9.6133Z" fill="white"/>
</svg>
