<svg width="24" height="24" viewBox="0 0 24 24" fill="none" xmlns="http://www.w3.org/2000/svg">
<g opacity="0.8">
<path fill-rule="evenodd" clip-rule="evenodd" d="M3.60976 15.95C3.20101 15.7322 3.04052 15.205 3.2589 14.7986C3.2589 14.7986 4.09323 13.2473 4.09379 13.2468C4.31239 12.8397 4.84396 12.6807 5.25277 12.8985C5.6618 13.1156 5.82168 13.643 5.60308 14.0494C5.60308 14.0494 4.76713 15.6028 4.76658 15.6041C4.54848 16.0094 4.01635 16.166 3.60976 15.95ZM20.5054 11.8451C20.3686 11.6768 20.1986 11.5304 19.9987 11.4169L15.4518 8.8407C15.0539 8.61505 14.644 8.52602 14.2277 8.52602C13.4217 8.52602 12.592 8.86009 11.7807 9.1863C10.2392 9.80704 8.89164 10.3492 7.63256 8.98219C8.85403 8.24553 9.89691 7.44598 10.738 6.60069C11.1087 6.22847 11.4855 5.91004 11.8569 5.65451C13.6336 4.43374 14.8618 4.93293 16.05 5.41571C16.9165 5.76778 17.8122 6.13193 18.7502 5.64644L20.6093 4.65702L23 10.7882L20.5054 11.8451ZM19.8881 13.3681C20.1121 12.9634 19.9579 12.4435 19.5445 12.2092L14.9976 9.63302C14.2161 9.19006 13.247 9.58006 12.1254 10.0321C10.4402 10.7099 8.34307 11.5544 6.56996 9.12578C6.49363 9.0209 6.46552 8.88858 6.49258 8.76217C6.52019 8.63554 6.60024 8.52658 6.71334 8.46229C8.06386 7.69311 9.19846 6.85103 10.0863 5.95897C10.3168 5.72741 10.5503 5.51468 10.7846 5.32128C9.77653 4.86599 8.92275 5.06635 8.02703 5.27693C7.16103 5.48027 6.26526 5.69057 5.35143 5.1879L2.7611 4L0 9.84122C0.044886 9.86111 0.0946604 9.88342 0.149046 9.90788C0.923329 10.2546 2.36307 10.8997 2.62744 11.002C3.30295 11.2623 3.46527 11.914 3.56349 12.4333C3.77209 12.2149 4.03529 12.0525 4.33477 11.9624C4.78874 11.8258 5.2681 11.8726 5.68446 12.0937C6.09977 12.3137 6.40492 12.6837 6.54285 13.135C6.57718 13.248 6.60101 13.362 6.61235 13.4766C7.01193 13.388 7.44424 13.4349 7.83327 13.642C8.24829 13.862 8.55344 14.2321 8.69165 14.6833C8.70088 14.7124 8.70871 14.742 8.71627 14.7718C8.74443 14.7616 8.77226 14.7524 8.80176 14.7438C9.25573 14.6069 9.73509 14.6532 10.1514 14.875C10.5667 15.0945 10.8718 15.4643 11.0098 15.9158C11.0191 15.9454 11.0272 15.975 11.0347 16.004C11.0626 15.9943 11.0913 15.9849 11.1199 15.976C11.5741 15.8394 12.0535 15.8862 12.4699 16.1073C12.6733 16.2152 12.85 16.3587 12.9939 16.5303L14.9889 17.6271C15.4025 17.853 15.9241 17.7029 16.1513 17.292C16.3767 16.8843 16.2236 16.365 15.8102 16.1342L13.0037 14.5635C12.7829 14.4398 12.7044 14.1618 12.8289 13.9423C12.9533 13.7228 13.2331 13.6451 13.4538 13.7688L17.0041 15.7413C17.4174 15.9672 17.9393 15.8166 18.1663 15.4056C18.3916 14.9984 18.2385 14.4791 17.8251 14.2478C17.8138 14.2413 15.0194 12.6704 15.0194 12.6704C14.7986 12.5462 14.7208 12.2678 14.8457 12.0491C14.9699 11.8297 15.2499 11.752 15.4707 11.8757L18.7301 13.7061C19.1344 13.9332 19.6659 13.7694 19.8881 13.3681ZM14.5079 19.3761C14.281 19.787 13.7591 19.9377 13.3457 19.7121L12.7246 19.3721L13.1978 18.4937C13.3146 18.2753 13.3828 18.04 13.4012 17.7998L14.1633 18.2166L14.1695 18.2198C14.5832 18.4474 14.7349 18.9662 14.5079 19.3761ZM11.0811 19.9627C10.8615 20.0288 10.6304 20.0065 10.4297 19.9C10.0136 19.679 9.85641 19.1623 10.0788 18.7484L10.8793 17.2606C11.0887 16.8483 11.6357 16.698 12.0383 16.9123C12.4465 17.1296 12.6072 17.6573 12.3886 18.0634L11.5881 19.5512C11.4807 19.7502 11.3008 19.8965 11.0811 19.9627ZM8.64871 18.9423C8.42906 19.0084 8.19746 18.9861 7.99726 18.8796C7.58089 18.6585 7.42318 18.1419 7.64639 17.728L8.56078 16.0279C8.61244 15.873 8.87564 15.6912 9.02013 15.6337C9.2444 15.5441 9.50821 15.567 9.71976 15.6791C9.91885 15.7846 10.0655 15.9632 10.1321 16.1815C10.1992 16.401 10.1773 16.6312 10.0701 16.8302L9.15546 18.5308C9.0483 18.7295 8.86814 18.8761 8.64871 18.9423ZM6.11355 18.1118C6.3332 18.0456 6.51313 17.899 6.62024 17.7L7.75161 15.5976C7.85899 15.3981 7.88065 15.1679 7.81355 14.9484C7.74727 14.7305 7.60039 14.5523 7.40124 14.4468C6.98488 14.2255 6.46708 14.3806 6.24359 14.7922L5.11089 16.8975C4.88851 17.3114 5.04567 17.8277 5.46203 18.0491C5.6623 18.1556 5.89389 18.1779 6.11355 18.1118Z" fill="#3D3D3D"/>
</g>
</svg>
