<?xml version="1.0" encoding="UTF-8"?><svg id="a" xmlns="http://www.w3.org/2000/svg" viewBox="0 0 1000 427.43"><defs><style>.ab{fill:#2980b9;}.ab,.ac{fill-rule:evenodd;}.ac{fill:#2c3e50;}</style></defs><path id="b" class="ab" d="M375.1,184.97c-3.26,5.22-7.51,9.96-12.24,14.07-8.49,7.43-18.93,12.49-30.2,14.55v4.11c1.14,24.98,10.94,50.91,29.71,77.48h-26.77c-7.51-12.18-13.38-25.14-17.63-38.74-4.24,13.6-10.12,26.56-17.63,38.74h-26.77c20.08-28.3,30.03-55.97,29.87-82.54-9.47-2.53-18.12-7.12-25.46-13.44-4.9-4.11-8.98-8.85-12.41-14.23l16.32-15.81c8.98,20.56,33.46,30.04,54.68,21.19,9.79-4.11,17.63-11.7,21.87-21.19l16.65,15.81Z"/><path id="c" class="ab" d="M320.38,131.11c13.81,0,25,11.18,25,24.97s-11.19,24.97-25,24.97-25-11.18-25-24.97,11.19-24.97,25-24.97"/><path id="d" class="ac" d="M675.8,351.44v10.19c.17,1.29-.34,2.59-1.18,3.56-.84,.81-1.85,1.29-3.02,1.13-1.18,0-2.18-.32-2.85-1.13-.84-.97-1.18-2.26-1.18-3.56v-12.13c0-1.46,0-2.91-.17-4.53-.17-.97-.5-1.94-1.18-2.59-.67-.81-1.85-1.13-2.85-.97-2.52,0-4.37,.81-5.04,2.59-1.01,2.43-1.34,4.85-1.18,7.44v10.35c.17,1.3-.34,2.59-1.18,3.56-.67,.81-1.85,1.29-2.85,1.13-1.18,0-2.18-.49-3.02-1.13-.84-.97-1.18-2.26-1.18-3.56v-21.83c-.17-1.13,.34-2.26,1.01-3.23,.67-.81,1.68-1.13,2.69-1.13s2.01,.32,2.69,.97c.67,.81,1.18,1.78,1.01,2.91v.81c1.18-1.46,2.69-2.59,4.37-3.56,1.68-.81,3.36-1.13,5.2-1.13s3.53,.32,5.2,1.13c1.51,.81,2.69,1.94,3.53,3.4,1.18-1.46,2.69-2.59,4.37-3.4,1.51-.81,3.36-1.13,5.04-1.13,2.01,0,3.86,.32,5.54,1.29,1.51,.81,2.69,1.94,3.53,3.56,.84,2.1,1.18,4.37,1.01,6.47v14.87c.17,1.29-.33,2.59-1.17,3.56-.84,.81-1.85,1.29-3.02,1.13-1.17,0-2.18-.49-3.02-1.13-.84-.97-1.18-2.26-1.18-3.56v-12.77c0-1.29,0-2.59-.17-3.88-.17-.97-.5-1.78-1.18-2.43-.84-.65-1.85-1.13-2.86-.97-1.01,0-2.18,.32-3.02,.97-1.01,.65-1.68,1.46-2.18,2.43-.5,1.78-.67,4.04-.5,6.31"/><path id="e" class="ac" d="M726.8,350.79c.16-2.59-.65-5.19-2.12-7.29-1.3-1.78-3.42-2.75-5.54-2.59-1.47,0-2.77,.32-3.91,1.13-1.14,.81-2.12,2.11-2.61,3.4-1.3,3.4-1.3,7.13,0,10.53,.49,1.3,1.47,2.59,2.61,3.4,1.14,.81,2.61,1.3,4.07,1.13,2.12,0,4.24-.97,5.54-2.59,1.47-2.11,2.12-4.54,1.95-7.13m7.82,0c0,2.11-.33,4.21-1.14,6.32-.65,1.78-1.79,3.57-3.1,5.02-1.3,1.46-2.93,2.43-4.89,3.24-1.95,.81-4.24,1.13-6.35,1.13s-4.24-.32-6.35-1.13c-1.79-.65-3.42-1.78-4.89-3.24-1.3-1.46-2.44-3.08-3.1-4.86-.65-1.94-1.14-4.21-1.14-6.32s.33-4.38,1.14-6.32c.65-1.78,1.79-3.57,3.1-4.86,1.3-1.46,2.93-2.43,4.89-3.08,4.07-1.46,8.47-1.46,12.54,0,1.79,.65,3.42,1.78,4.89,3.24,1.3,1.46,2.44,3.08,3.1,4.86,.98,1.62,1.3,3.73,1.3,6"/><path id="f" class="ac" d="M752.08,350.31c-.17,2.58,.67,5.34,2.18,7.41,1.34,1.72,3.53,2.76,5.71,2.58,2.02,0,3.86-1.03,5.21-2.58,1.51-2.24,2.35-5,2.18-7.58,0-1.9-.34-3.79-.84-5.51-.5-1.38-1.34-2.76-2.52-3.62-1.18-.86-2.52-1.21-3.86-1.21-1.51,0-2.86,.34-4.03,1.21-1.18,.86-2.18,2.24-2.86,3.62-.84,1.72-1.18,3.62-1.18,5.69m-.34-24.12v12.41c1.34-1.38,2.86-2.76,4.54-3.62,1.85-.86,3.7-1.38,5.71-1.21,2.52,0,4.87,.69,6.89,1.9,2.02,1.38,3.7,3.27,4.54,5.51,1.18,2.76,1.68,5.69,1.68,8.62,0,2.24-.34,4.65-.84,6.72-.5,1.9-1.51,3.79-2.69,5.34-1.18,1.55-2.52,2.76-4.2,3.45-1.68,.86-3.53,1.21-5.54,1.21-1.18,0-2.35-.17-3.53-.52-1.01-.17-1.85-.69-2.69-1.21-.67-.52-1.34-.86-1.85-1.55-.5-.52-1.18-1.21-2.18-2.24v.86c.17,1.21-.34,2.41-1.01,3.45-.67,.86-1.68,1.21-2.69,1.21s-2.02-.34-2.69-1.21c-.67-1.03-1.01-2.24-1.01-3.45v-35.5c-.17-1.38,.17-2.58,1.01-3.79,.67-.86,1.68-1.38,2.69-1.21,1.01,0,2.18,.34,2.86,1.21,.84,1.03,1.18,2.24,1.01,3.62"/><path id="g" class="ac" d="M788.21,329.38c-.89,0-1.78-.35-2.52-1.05-1.33-1.57-1.33-4.18,0-5.75l.15-.17c.74-.7,1.48-1.22,2.52-1.05,.89,0,1.78,.35,2.37,1.05,.74,.7,1.04,1.92,1.04,2.96s-.3,2.27-1.04,2.96c-.74,.7-1.63,1.05-2.52,1.05m3.4,8.54v23.7c.15,1.39-.3,2.61-1.04,3.66-.59,.87-1.63,1.22-2.52,1.22s-1.92-.52-2.52-1.22c-.74-1.05-1.04-2.44-.89-3.66v-23.53c-.15-1.39,.3-2.61,.89-3.66,.59-.87,1.48-1.22,2.52-1.22,.89,0,1.92,.35,2.52,1.22,.74,.87,1.18,2.09,1.04,3.49"/><path id="h" class="ac" d="M801.31,361.67v-35.46c-.15-1.38,.3-2.59,.9-3.63,.6-.86,1.66-1.38,2.56-1.21,1.06,0,1.96,.35,2.56,1.21,.75,1.04,1.06,2.42,1.06,3.63v35.46c.15,1.38-.3,2.59-1.06,3.63-.6,.86-1.66,1.21-2.56,1.21s-1.96-.52-2.56-1.21c-.6-1.04-.9-2.25-.9-3.63"/><path id="i" class="ac" d="M826.29,348.73h14.85c0-2.08-.86-4.16-2.24-5.77-1.38-1.28-3.28-1.92-5.18-1.92s-3.8,.64-5.01,1.92c-1.55,1.76-2.24,3.68-2.42,5.77m15.88,4.32h-15.88c0,1.6,.35,3.2,1.21,4.48,1.21,2.4,3.97,4,6.91,4,.86,0,1.73-.16,2.59-.32s1.55-.48,2.42-.96c.69-.48,1.38-.96,2.07-1.44,.69-.48,1.38-1.28,2.42-2.08,.52-.32,1.21-.48,1.73-.48,.69,0,1.38,.16,2.07,.64,.52,.48,.86,1.12,.69,1.76,0,.8-.35,1.6-.86,2.4-.69,.96-1.55,1.92-2.59,2.56-1.38,.96-2.76,1.6-4.32,2.08-1.9,.64-3.97,.8-6.04,.8-5.18,0-9.32-1.44-12.26-4.17-3.11-3.04-4.66-7.05-4.32-11.21,0-2.08,.35-4.16,1.04-6.24,.69-1.76,1.73-3.52,3.11-4.97,1.38-1.44,3.11-2.4,5.01-3.2,2.07-.8,4.49-1.12,6.73-1.12,2.94,0,5.7,.64,8.12,1.92,2.24,1.12,3.97,2.88,5.18,4.8,1.03,1.92,1.73,4,1.73,6.09,0,1.92-.52,3.2-1.73,3.69-1.56,.8-3.28,1.12-5.01,.96"/><polygon id="j" class="ac" points="870.33 333.22 875.1 333.22 875.1 283.29 870.33 283.29 870.33 333.22"/><polygon id="k" class="ac" points="648.9 314.2 906.05 314.2 906.05 309.44 648.9 309.44 648.9 314.2"/><polygon id="l" class="ac" points="496.52 314.2 567.95 314.2 567.95 309.44 496.52 309.44 496.52 314.2"/><path id="m" class="ac" d="M906.05,304.69c3.95,0,7.14,3.19,7.14,7.13s-3.2,7.13-7.14,7.13-7.14-3.19-7.14-7.13,3.2-7.13,7.14-7.13"/><path id="n" class="ac" d="M872.71,276.16c3.95,0,7.14,3.19,7.14,7.13s-3.2,7.13-7.14,7.13-7.14-3.19-7.14-7.13,3.2-7.13,7.14-7.13"/><path id="o" class="ac" d="M142.47,137.24l114.05-92.88c13.44-10.97,33.75-11.61,42.28,.8l72.26,103.85-74.56-85.24c-4.59-5.25-13.93-2.54-18.35,1.27l-108.8,97.01c-4.59,3.66-9.01,12.09-4.42,17.33l166.97,191.79c4.59,5.25,13.6,2.07,18.35-1.27l89.14-63.3-78.16,70.77c-12.78,11.61-32.12,10.34-42.28-.8L135.75,177.8c-10.16-10.97-6.72-29.58,6.72-40.55"/><path id="p" class="ab" d="M116.45,185.36c-12.96-11.58-14-31.46-2.07-44.14l2.77-2.97,6.05,5.48-2.77,2.97c-8.81,9.7-8.12,23.79,1.56,32.87l3.11,2.66-5.53,5.95-3.11-2.82Z"/><path id="q" class="ab" d="M104.72,204.36c-22.19-20.21-23.72-55.11-3.56-77.38l2.71-3,5.93,5.53-2.71,3c-17.11,18.95-15.76,48.64,3.05,66.01l3.05,2.68-5.42,6-3.05-2.84Z"/><path id="r" class="ab" d="M368.11,227.99h16.09v6.89c2.91-2.73,6.28-4.97,9.96-6.73,2.91-1.28,5.97-1.92,9.04-1.92,6.13-.16,11.95,2.41,16.24,7.06,3.68,4.01,5.67,9.78,5.67,17.48v44.42h-15.93v-29.5c0-8.02-.31-13.31-1.07-16.03-.46-2.41-1.84-4.49-3.68-6.09-1.84-1.44-4.14-2.08-6.28-2.08-3.06,0-6.13,1.12-8.43,3.37-2.45,2.57-4.14,5.93-4.9,9.46-.61,4.49-.92,9.14-.77,13.63v26.94h-16.09l.15-66.86Z"/><path id="s" class="ab" d="M488.23,237.19l-10.91,10.16c-4.36-4.06-8.39-6.09-12.09-6.09-1.68-.16-3.36,.31-4.7,1.09-1.01,.63-1.68,1.72-1.68,2.97,0,.94,.34,1.72,1.01,2.5,1.51,1.25,3.36,2.34,5.2,2.97l6.38,2.97c6.88,3.13,11.58,6.41,14.1,9.53,6.04,8.13,4.87,19.22-3.02,26.09-4.53,3.91-10.74,5.78-18.47,5.78-9.74,.31-18.97-3.91-24.68-11.25l10.91-11.09c2.01,2.19,4.53,4.06,7.22,5.47,2.18,1.25,4.87,2.03,7.39,2.03,2.01,.16,4.03-.47,5.54-1.56,1.34-.78,2.18-2.19,2.18-3.59,0-2.5-2.52-5-7.72-7.34l-6.04-2.81c-11.42-5.31-17.12-12.03-17.12-20,0-5.16,2.35-10,6.38-13.28,4.53-3.75,10.41-5.78,16.45-5.47,9.57,0,18.3,4.06,23.67,10.94"/><path id="t" class="ab" d="M608.92,244.45c-5.1-.16-10.04,1.76-13.5,5.28-3.62,3.52-5.43,8.48-5.27,13.45-.16,5.12,1.81,10.09,5.43,13.77,3.62,3.52,8.56,5.44,13.66,5.44,4.94,.16,9.87-1.76,13.33-5.28,3.62-3.68,5.43-8.64,5.27-13.77,.16-5.12-1.65-9.93-5.27-13.61-3.79-3.52-8.72-5.44-13.66-5.28h0Zm17.94-14.09h17.28v57.47c0,11.37-2.3,19.69-7.08,24.97-6.25,7.2-15.8,10.89-28.47,10.89-5.76,.16-11.52-.64-17.12-2.4-9.05-3.04-15.96-10.09-18.76-18.89h19.09c1.81,1.92,3.95,3.36,6.58,4.32,2.96,.96,6.25,1.6,9.55,1.44,3.79,.16,7.74-.64,11.19-2.08,2.47-1.12,4.61-3.04,5.92-5.44,1.15-2.24,1.81-6.08,1.81-11.53-2.8,2.72-5.92,4.96-9.55,6.4-3.62,1.28-7.41,1.92-11.36,1.92-8.89,.16-17.45-3.36-23.54-9.77-6.42-6.56-9.55-14.73-9.55-24.65,0-10.73,3.46-19.21,10.2-25.61,5.76-5.76,13.66-8.8,21.89-8.8,3.79,0,7.74,.64,11.19,2.08,3.95,1.76,7.57,4,10.7,7.04v-7.36Z"/><path id="u" class="ab" d="M691.94,241.55c-5.1-.16-9.87,1.88-13.33,5.32-7.07,7.97-7.07,19.86,.16,27.83,3.46,3.6,8.23,5.63,13.33,5.47,5.1,.16,10.04-1.88,13.66-5.47,3.62-3.91,5.59-8.91,5.43-14.07,.16-5.16-1.65-10.16-5.43-13.92-3.78-3.44-8.72-5.32-13.82-5.16h0Zm18.26-13.6h17.28v65.51h-17.28v-6.88c-2.96,2.82-6.42,5-10.2,6.57-3.46,1.41-7.24,2.03-11.02,2.03-8.88,0-17.28-3.6-23.2-9.85-6.58-6.57-10.04-15.48-9.71-24.55,0-10.16,3.13-18.45,9.38-24.86,5.76-6.25,14.15-9.85,23.03-9.69,3.95,0,8.06,.78,11.68,2.19,3.78,1.56,7.24,3.91,10.04,6.72v-7.19Z"/><path id="v" class="ab" d="M523.33,207.2v21.29h10.45v14.14h-10.45v29.84c0,1.09,.34,2.18,.67,3.11,.67,1.4,1.69,2.49,3.03,3.11,1.85,.93,3.88,1.24,6.07,1.24h1.52v15.08c-1.52,.16-2.87,.16-4.55,.16-6.41,0-11.29-.93-15-2.8-3.2-1.71-5.9-4.2-7.42-7.31-1.35-2.95-2.02-9.02-2.02-18.03v-24.25h-9.1v-14.14h9.1v-10.26c7.42-1.24,13.99-5.28,17.7-11.19"/><path id="w" class="ab" d="M546.52,225.87h19.05v-11.53h-19.05v11.53Zm0,71.69h19.05v-66.08h-19.05v66.08Z"/><path id="x" class="ab" d="M766.18,207.2v21.18h10.45v14.17h-10.45v29.9c0,1.09,.34,2.18,.67,3.11,.67,1.4,1.69,2.49,3.03,3.11,1.85,.93,3.88,1.25,6.07,1.25h1.52v15.1c-1.52,.16-2.87,.16-4.55,.16-6.41,0-11.46-.93-15-2.8-3.37-1.71-5.9-4.2-7.42-7.32-1.35-2.96-2.02-9.03-2.02-18.06v-24.29h-9.1v-14.17h9.1v-10.28c7.25-1.09,13.82-5.14,17.7-11.06"/><path id="y" class="ac" d="M872.71,328.47c3.95,0,7.14,3.19,7.14,7.14s-3.2,7.13-7.14,7.13-7.14-3.19-7.14-7.13,3.2-7.14,7.14-7.14"/><path id="a`" class="ac" d="M503.67,311.82c0,3.94-3.2,7.13-7.14,7.13s-7.14-3.19-7.14-7.13,3.2-7.14,7.14-7.14,7.14,3.19,7.14,7.14Z"/><path id="aa" class="ab" d="M838.69,252.47c-1.16-3.68-3.47-6.72-6.61-8.96-3.31-2.24-7.44-3.52-11.57-3.36-4.46,0-8.93,1.28-12.4,3.84-2.81,2.24-4.96,5.28-6.28,8.48h36.86Zm17.19,12.95h-54.71c.66,4.32,2.81,8.32,6.28,11.03,3.64,2.88,8.43,4.32,13.06,4.16,6.12,.16,12.07-2.24,16.36-6.4l14.38,6.56c-3.31,4.64-7.6,8.32-12.89,10.87-5.62,2.4-11.57,3.68-17.69,3.52-10.58,0-19.34-3.2-25.95-9.75-6.61-6.4-10.25-15.19-10.08-24.31-.33-9.28,3.31-18.23,10.08-24.95,6.61-6.56,15.7-10.23,25.12-9.91,10.74,0,19.34,3.36,26.12,9.91,6.78,6.56,10.08,15.35,10.08,26.23l-.17,3.04Z"/></svg>