<svg width="24" height="24" viewBox="0 0 24 24" fill="none" xmlns="http://www.w3.org/2000/svg">
<g clip-path="url(#clip0_2379_657)">
<g opacity="0.8">
<path d="M6.76953 9.4873H10.6157V24.0001H6.76953V9.4873Z" fill="#3D3D3D"/>
<path d="M13.3848 12.5635H17.2309V23.9994H13.3848V12.5635Z" fill="#3D3D3D"/>
<path d="M20 7.12793H23.8462V23.9997H20V7.12793Z" fill="#3D3D3D"/>
<path d="M0.154297 14.9736H4.00045V23.9993H0.154297V14.9736Z" fill="#3D3D3D"/>
<path d="M21.7912 0C20.7158 0 19.844 0.871231 19.844 1.94595C19.844 2.19749 19.8922 2.43764 19.9792 2.65831L16.2262 5.85539C15.9508 5.70631 15.6354 5.62164 15.3002 5.62164C14.7437 5.62164 14.242 5.85534 13.8871 6.22944L10.6474 4.90257C10.6476 4.89 10.6483 4.87754 10.6483 4.86487C10.6483 3.79015 9.77649 2.91892 8.701 2.91892C7.62551 2.91892 6.75372 3.79015 6.75372 4.86487C6.75372 4.97364 6.76305 5.08016 6.78023 5.18405L3.41433 7.17416C3.0829 6.91303 2.66485 6.75677 2.21003 6.75677C1.13454 6.75677 0.262695 7.628 0.262695 8.70272C0.262695 9.77744 1.13454 10.6487 2.21003 10.6487C3.28551 10.6487 4.15731 9.77744 4.15731 8.70272C4.15731 8.59395 4.14798 8.48744 4.1308 8.38354L7.49669 6.39344C7.82813 6.65457 8.24618 6.81082 8.70105 6.81082C9.25761 6.81082 9.75925 6.57713 10.1141 6.20303L13.3539 7.5299C13.3537 7.54246 13.3529 7.55493 13.3529 7.56754C13.3529 8.64226 14.2248 9.51349 15.3003 9.51349C16.3758 9.51349 17.2476 8.64226 17.2476 7.56754C17.2476 7.34236 17.2088 7.12631 17.1384 6.92513L20.9328 3.69272C21.1919 3.82005 21.4831 3.8919 21.7913 3.8919C22.8668 3.8919 23.7386 3.02067 23.7386 1.94595C23.7386 0.871231 22.8667 0 21.7912 0V0Z" fill="#3D3D3D"/>
</g>
</g>
<defs>
<clipPath id="clip0_2379_657">
<rect width="24" height="24" fill="white"/>
</clipPath>
</defs>
</svg>
